<svg width="116" height="116" viewBox="0 0 116 116" fill="none" xmlns="http://www.w3.org/2000/svg">
<path d="M103.75 42.75H107.562V46.5625H103.75V42.75Z" fill="url(#paint0_linear)"/>
<path d="M99.9375 48.4688H107.562V52.2812H99.9375V48.4688Z" fill="url(#paint1_linear)"/>
<path d="M96.125 54.1875H107.562V58H96.125V54.1875Z" fill="url(#paint2_linear)"/>
<path d="M13.9214 20.8941L20.8915 13.924L23.5874 16.6198L16.6173 23.5899L13.9214 20.8941Z" fill="url(#paint3_linear)"/>
<path d="M8.20456 15.1772L15.1747 8.20712L17.8705 10.903L10.9004 17.8731L8.20456 15.1772Z" fill="url(#paint4_linear)"/>
<path d="M109.469 65.625C110.984 65.6205 112.436 65.0165 113.508 63.945C114.579 62.8735 115.183 61.4216 115.188 59.9062V6.53125C115.183 5.01593 114.579 3.56398 113.508 2.49248C112.436 1.42099 110.984 0.817026 109.469 0.8125H6.53125C5.01593 0.817026 3.56398 1.42099 2.49248 2.49248C1.42099 3.56398 0.817026 5.01593 0.8125 6.53125V59.9062C0.817026 61.4216 1.42099 62.8735 2.49248 63.945C3.56398 65.0165 5.01593 65.6205 6.53125 65.625H28.8153C29.4769 67.0506 30.3944 68.3428 31.5222 69.4375H31.3125C29.7972 69.442 28.3452 70.046 27.2737 71.1175C26.2022 72.189 25.5983 73.6409 25.5938 75.1562V77.0625H17.9688C16.4534 77.067 15.0015 77.671 13.93 78.7425C12.8585 79.814 12.2545 81.2659 12.25 82.7812V86.5938H6.53125C5.01593 86.5983 3.56398 87.2022 2.49248 88.2737C1.42099 89.3452 0.817026 90.7972 0.8125 92.3125V113.281C0.8125 113.787 1.01334 114.272 1.37083 114.629C1.72832 114.987 2.21318 115.188 2.71875 115.188H14.1562C14.6618 115.188 15.1467 114.987 15.5042 114.629C15.8617 114.272 16.0625 113.787 16.0625 113.281V111.375H99.9375V113.281C99.9375 113.787 100.138 114.272 100.496 114.629C100.853 114.987 101.338 115.188 101.844 115.188H113.281C113.787 115.188 114.272 114.987 114.629 114.629C114.987 114.272 115.188 113.787 115.188 113.281V92.3125C115.183 90.7972 114.579 89.3452 113.508 88.2737C112.436 87.2022 110.984 86.5983 109.469 86.5938H103.75V82.7812C103.745 81.2659 103.142 79.814 102.07 78.7425C100.999 77.671 99.5466 77.067 98.0312 77.0625H90.4062V75.1562C90.4017 73.6409 89.7978 72.189 88.7263 71.1175C87.6548 70.046 86.2028 69.442 84.6875 69.4375H84.4778C85.6056 68.3428 86.5231 67.0506 87.1847 65.625H109.469ZM12.25 111.375H4.625V92.3125C4.625 91.8069 4.82584 91.3221 5.18333 90.9646C5.54082 90.6071 6.02568 90.4062 6.53125 90.4062H12.25V111.375ZM103.75 90.4062H109.469C109.974 90.4062 110.459 90.6071 110.817 90.9646C111.174 91.3221 111.375 91.8069 111.375 92.3125V111.375H103.75V90.4062ZM27.6525 61.8125H6.53125C6.02568 61.8125 5.54082 61.6117 5.18333 61.2542C4.82584 60.8967 4.625 60.4118 4.625 59.9062V6.53125C4.625 6.02568 4.82584 5.54082 5.18333 5.18333C5.54082 4.82584 6.02568 4.625 6.53125 4.625H109.469C109.974 4.625 110.459 4.82584 110.817 5.18333C111.174 5.54082 111.375 6.02568 111.375 6.53125V59.9062C111.375 60.4118 111.174 60.8967 110.817 61.2542C110.459 61.6117 109.974 61.8125 109.469 61.8125H88.3475C88.4464 61.1818 88.4974 60.5446 88.5 59.9062C88.5 56.3673 87.0941 52.9732 84.5917 50.4708C82.0893 47.9684 78.6952 46.5625 75.1562 46.5625C71.6173 46.5625 68.2232 47.9684 65.7208 50.4708C63.2184 52.9732 61.8125 56.3673 61.8125 59.9062C61.8151 60.5446 61.8661 61.1818 61.965 61.8125H54.035C54.1339 61.1818 54.1849 60.5446 54.1875 59.9062C54.1875 56.3673 52.7816 52.9732 50.2792 50.4708C47.7768 47.9684 44.3827 46.5625 40.8438 46.5625C37.3048 46.5625 33.9107 47.9684 31.4083 50.4708C28.9059 52.9732 27.5 56.3673 27.5 59.9062C27.5026 60.5446 27.5536 61.1818 27.6525 61.8125ZM50.375 69.4375H50.1653C51.2931 68.3428 52.2106 67.0506 52.8722 65.625H63.1278C63.7894 67.0506 64.7069 68.3428 65.8347 69.4375H65.625C64.1097 69.442 62.6577 70.046 61.5862 71.1175C60.5147 72.189 59.9108 73.6409 59.9062 75.1562V77.0625H56.0938V75.1562C56.0892 73.6409 55.4853 72.189 54.4138 71.1175C53.3423 70.046 51.8903 69.442 50.375 69.4375ZM31.3125 59.9062C31.3125 58.0211 31.8715 56.1784 32.9188 54.611C33.9661 53.0436 35.4547 51.8219 37.1963 51.1005C38.9379 50.3791 40.8543 50.1904 42.7032 50.5581C44.5521 50.9259 46.2504 51.8337 47.5834 53.1666C48.9163 54.4996 49.8241 56.1979 50.1919 58.0468C50.5596 59.8957 50.3709 61.8121 49.6495 63.5537C48.9281 65.2953 47.7064 66.7839 46.139 67.8312C44.5716 68.8785 42.7289 69.4375 40.8438 69.4375C38.3159 69.4375 35.8916 68.4333 34.1041 66.6459C32.3167 64.8584 31.3125 62.4341 31.3125 59.9062ZM29.4062 75.1562C29.4062 74.6507 29.6071 74.1658 29.9646 73.8083C30.3221 73.4508 30.8069 73.25 31.3125 73.25H50.375C50.8806 73.25 51.3654 73.4508 51.7229 73.8083C52.0804 74.1658 52.2812 74.6507 52.2812 75.1562V77.0625H29.4062V75.1562ZM98.0312 80.875C98.5368 80.875 99.0217 81.0758 99.3792 81.4333C99.7367 81.7908 99.9375 82.2757 99.9375 82.7812V107.562H16.0625V82.7812C16.0625 82.2757 16.2633 81.7908 16.6208 81.4333C16.9783 81.0758 17.4632 80.875 17.9688 80.875H98.0312ZM84.6875 73.25C85.1931 73.25 85.6779 73.4508 86.0354 73.8083C86.3929 74.1658 86.5938 74.6507 86.5938 75.1562V77.0625H63.7188V75.1562C63.7188 74.6507 63.9196 74.1658 64.2771 73.8083C64.6346 73.4508 65.1194 73.25 65.625 73.25H84.6875ZM75.1562 69.4375C73.2711 69.4375 71.4284 68.8785 69.861 67.8312C68.2936 66.7839 67.0719 65.2953 66.3505 63.5537C65.6291 61.8121 65.4404 59.8957 65.8081 58.0468C66.1759 56.1979 67.0837 54.4996 68.4166 53.1666C69.7496 51.8337 71.4479 50.9259 73.2968 50.5581C75.1457 50.1904 77.0621 50.3791 78.8037 51.1005C80.5453 51.8219 82.0339 53.0436 83.0812 54.611C84.1285 56.1784 84.6875 58.0211 84.6875 59.9062C84.6875 62.4341 83.6833 64.8584 81.8959 66.6459C80.1084 68.4333 77.6841 69.4375 75.1562 69.4375Z" fill="url(#paint5_linear)"/>
<path d="M74.1078 27.7097L51.2328 16.2722C50.9426 16.126 50.6199 16.0563 50.2952 16.0699C49.9705 16.0835 49.6547 16.1799 49.3778 16.3499C49.1009 16.5199 48.872 16.7578 48.7129 17.0412C48.5538 17.3245 48.4697 17.6438 48.4687 17.9687V40.8438C48.4681 41.1677 48.55 41.4865 48.7068 41.77C48.8635 42.0535 49.09 42.2924 49.3647 42.4641C49.6686 42.6508 50.0183 42.7497 50.375 42.75C50.6731 42.7461 50.9665 42.6744 51.2328 42.5403L74.1078 31.1028C74.42 30.9428 74.6821 30.6998 74.8651 30.4005C75.048 30.1011 75.1449 29.7571 75.1449 29.4062C75.1449 29.0554 75.048 28.7114 74.8651 28.412C74.6821 28.1127 74.42 27.8697 74.1078 27.7097ZM52.2812 37.7556V21.0569L68.98 29.4062L52.2812 37.7556Z" fill="url(#paint6_linear)"/>
<defs>
<linearGradient id="paint0_linear" x1="105.656" y1="42.75" x2="105.656" y2="46.5625" gradientUnits="userSpaceOnUse">
<stop stop-color="white"/>
<stop offset="1" stop-color="#7B37B1"/>
</linearGradient>
<linearGradient id="paint1_linear" x1="103.75" y1="48.4688" x2="103.75" y2="52.2812" gradientUnits="userSpaceOnUse">
<stop stop-color="white"/>
<stop offset="1" stop-color="#7B37B1"/>
</linearGradient>
<linearGradient id="paint2_linear" x1="101.844" y1="54.1875" x2="101.844" y2="58" gradientUnits="userSpaceOnUse">
<stop stop-color="white"/>
<stop offset="1" stop-color="#7B37B1"/>
</linearGradient>
<linearGradient id="paint3_linear" x1="17.4065" y1="17.409" x2="20.1023" y2="20.1049" gradientUnits="userSpaceOnUse">
<stop stop-color="white"/>
<stop offset="1" stop-color="#7B37B1"/>
</linearGradient>
<linearGradient id="paint4_linear" x1="11.6896" y1="11.6922" x2="14.3855" y2="14.388" gradientUnits="userSpaceOnUse">
<stop stop-color="white"/>
<stop offset="1" stop-color="#7B37B1"/>
</linearGradient>
<linearGradient id="paint5_linear" x1="58" y1="0.8125" x2="58" y2="115.188" gradientUnits="userSpaceOnUse">
<stop stop-color="white"/>
<stop offset="1" stop-color="#7B37B1"/>
</linearGradient>
<linearGradient id="paint6_linear" x1="61.8068" y1="16.0683" x2="61.8068" y2="42.75" gradientUnits="userSpaceOnUse">
<stop stop-color="white"/>
<stop offset="1" stop-color="#7B37B1"/>
</linearGradient>
</defs>
</svg>
